<svg width="143" height="30" viewBox="0 0 143 30" fill="none" xmlns="http://www.w3.org/2000/svg">
<path d="M1.43111 5.09091H7.09091L11.892 16.7983H12.1136L16.9148 5.09091H22.5746V24H18.1243V12.3849H17.9673L13.4247 23.88H10.581L6.03835 12.3203H5.88139V24H1.43111V5.09091ZM42.2726 14.5455C42.2726 16.6259 41.8725 18.3894 41.0723 19.8359C40.2721 21.2824 39.1887 22.3812 37.8223 23.1321C36.4619 23.883 34.9354 24.2585 33.2427 24.2585C31.5439 24.2585 30.0143 23.88 28.6539 23.1229C27.2936 22.3658 26.2134 21.267 25.4132 19.8267C24.6191 18.3802 24.2221 16.6198 24.2221 14.5455C24.2221 12.465 24.6191 10.7015 25.4132 9.25497C26.2134 7.80848 27.2936 6.70975 28.6539 5.95881C30.0143 5.20786 31.5439 4.83239 33.2427 4.83239C34.9354 4.83239 36.4619 5.20786 37.8223 5.95881C39.1887 6.70975 40.2721 7.80848 41.0723 9.25497C41.8725 10.7015 42.2726 12.465 42.2726 14.5455ZM37.6007 14.5455C37.6007 13.3144 37.4252 12.2741 37.0744 11.4247C36.7297 10.5753 36.2311 9.93205 35.5787 9.49503C34.9324 9.058 34.1537 8.83949 33.2427 8.83949C32.3379 8.83949 31.5592 9.058 30.9068 9.49503C30.2543 9.93205 29.7527 10.5753 29.4018 11.4247C29.0571 12.2741 28.8848 13.3144 28.8848 14.5455C28.8848 15.7765 29.0571 16.8168 29.4018 17.6662C29.7527 18.5156 30.2543 19.1589 30.9068 19.5959C31.5592 20.0329 32.3379 20.2514 33.2427 20.2514C34.1537 20.2514 34.9324 20.0329 35.5787 19.5959C36.2311 19.1589 36.7297 18.5156 37.0744 17.6662C37.4252 16.8168 37.6007 15.7765 37.6007 14.5455ZM61.1049 11.9418H56.4885C56.4269 11.4678 56.3007 11.04 56.1099 10.6584C55.9191 10.2768 55.6667 9.95052 55.3528 9.67969C55.0389 9.40885 54.6665 9.20265 54.2356 9.06108C53.8109 8.91335 53.34 8.83949 52.823 8.83949C51.9058 8.83949 51.1149 9.06416 50.4501 9.51349C49.7915 9.96283 49.2837 10.6122 48.9267 11.4616C48.5758 12.3111 48.4004 13.339 48.4004 14.5455C48.4004 15.8011 48.5789 16.8537 48.9359 17.7031C49.2991 18.5464 49.8069 19.1835 50.4593 19.6143C51.118 20.0391 51.8966 20.2514 52.7953 20.2514C53.3 20.2514 53.7586 20.1868 54.171 20.0575C54.5895 19.9283 54.9558 19.7405 55.2697 19.4943C55.5898 19.242 55.8514 18.9373 56.0545 18.5803C56.2638 18.2171 56.4084 17.8078 56.4885 17.3523L61.1049 17.38C61.0249 18.2171 60.7818 19.0419 60.3755 19.8544C59.9754 20.6669 59.4245 21.4086 58.7228 22.0795C58.0211 22.7443 57.1655 23.2737 56.1561 23.6676C55.1528 24.0616 54.0017 24.2585 52.7029 24.2585C50.9918 24.2585 49.4591 23.883 48.1049 23.1321C46.7569 22.375 45.6921 21.2732 44.9103 19.8267C44.1286 18.3802 43.7377 16.6198 43.7377 14.5455C43.7377 12.465 44.1348 10.7015 44.9288 9.25497C45.7228 7.80848 46.7969 6.70975 48.1511 5.95881C49.5053 5.20786 51.0225 4.83239 52.7029 4.83239C53.8478 4.83239 54.9065 4.99242 55.8791 5.3125C56.8516 5.62642 57.7072 6.08807 58.4458 6.69744C59.1845 7.30066 59.7846 8.04238 60.2463 8.92259C60.7079 9.80279 60.9941 10.8092 61.1049 11.9418ZM74.2706 24L68.3246 16.152H67.2905V24H62.7202V5.09091H67.2905V12.4311H68.0199L73.8736 5.09091H79.5888L72.304 14.0192L79.9673 24H74.2706ZM80.6362 24V5.09091H88.5211C89.9368 5.09091 91.1217 5.29096 92.0758 5.69105C93.036 6.09114 93.7562 6.65128 94.2363 7.37145C94.7226 8.09162 94.9657 8.92566 94.9657 9.87358C94.9657 10.5938 94.8149 11.237 94.5133 11.8033C94.2117 12.3634 93.7962 12.8281 93.2669 13.1974C92.7375 13.5668 92.1251 13.8253 91.4295 13.973V14.1577C92.1928 14.1946 92.8976 14.4008 93.5439 14.7763C94.1963 15.1518 94.7195 15.675 95.1135 16.3459C95.5074 17.0107 95.7044 17.7985 95.7044 18.7095C95.7044 19.7251 95.4458 20.633 94.9288 21.4332C94.4118 22.2273 93.6639 22.8551 92.6852 23.3168C91.7065 23.7723 90.5185 24 89.1213 24H80.6362ZM85.2065 20.3161H88.0318C89.0228 20.3161 89.7522 20.1283 90.22 19.7528C90.694 19.3774 90.9309 18.8542 90.9309 18.1832C90.9309 17.697 90.8171 17.2784 90.5893 16.9276C90.3616 16.5705 90.0384 16.2966 89.6199 16.1058C89.2013 15.9089 88.6996 15.8104 88.1149 15.8104H85.2065V20.3161ZM85.2065 12.8651H87.7363C88.2349 12.8651 88.6781 12.782 89.0659 12.6158C89.4537 12.4496 89.7553 12.2095 89.9707 11.8956C90.1923 11.5817 90.3031 11.2031 90.3031 10.7599C90.3031 10.1259 90.0784 9.62737 89.6291 9.2642C89.1797 8.90104 88.5734 8.71946 87.8102 8.71946H85.2065V12.8651ZM100.992 24H96.0801L102.46 5.09091H108.545L114.925 24H110.013L105.572 9.85511H105.424L100.992 24ZM100.336 16.5582H110.604V20.0298H100.336V16.5582Z" fill="white"/>
<path d="M134.861 3.81641L131.42 12.0142L127.877 3.81641L124.133 5.43572L125.752 9.07918C126.764 11.4069 128.889 12.8238 131.521 12.8238C134.051 12.8238 136.176 11.4069 137.188 8.97795L138.706 5.33451L134.861 3.81641Z" fill="white"/>
<path d="M120 16.8721H129.008L122.834 23.3494L125.769 26.1832L128.502 23.2482C130.222 21.4265 130.728 18.7951 129.716 16.4673C128.704 14.1395 126.579 12.7227 123.947 12.7227H120V16.8721Z" fill="white"/>
<path d="M142.98 16.8721H133.972L140.146 23.3494L137.211 26.1832L134.478 23.2482C132.758 21.4265 132.252 18.7951 133.264 16.4673C134.276 14.1395 136.401 12.7227 139.033 12.7227H142.98V16.8721Z" fill="white"/>
</svg>
