<svg width="43" height="29" viewBox="0 0 43 29" fill="none" xmlns="http://www.w3.org/2000/svg">
<path d="M9.26847 10.5455C14.3646 10.5455 18.4957 14.6767 18.4957 19.7727C18.4957 24.8687 14.3646 29 9.26847 29C4.17237 29 0.0411932 24.8687 0.0411932 19.7727L0 18.4545C0 8.26236 8.26236 0 18.4545 0V5.27273C14.9336 5.27273 11.6233 6.64388 9.1336 9.1336C8.65436 9.61292 8.21697 10.1229 7.82242 10.6586C8.29359 10.5844 8.77645 10.5455 9.26847 10.5455ZM32.9957 10.5455C38.0917 10.5455 42.223 14.6767 42.223 19.7727C42.223 24.8687 38.0917 29 32.9957 29C27.8997 29 23.7685 24.8687 23.7685 19.7727L23.7273 18.4545C23.7273 8.26236 31.9896 0 42.1818 0V5.27273C38.661 5.27273 35.3505 6.64388 32.8609 9.1336C32.3815 9.61292 31.9442 10.1229 31.5496 10.6586C32.0208 10.5844 32.5036 10.5455 32.9957 10.5455Z" fill="#C0C0C0"/>
</svg>
